<svg width="30" height="30" viewBox="0 0 30 30" fill="none" xmlns="http://www.w3.org/2000/svg">
<path d="M24.935 0H4.56495C2.15423 0 0.199951 1.95428 0.199951 4.365V24.735C0.199951 27.1457 2.15423 29.1 4.56495 29.1H24.935C27.3457 29.1 29.3 27.1457 29.3 24.735V4.365C29.3 1.95428 27.3457 0 24.935 0Z" fill="#1877F2"/>
<path d="M20.4106 18.7559L21.0585 14.55H17.0232V11.8219C17.0232 10.6738 17.5859 9.54844 19.3933 9.54844H21.2291V5.96777C21.2291 5.96777 19.5638 5.68359 17.9724 5.68359C14.6475 5.68359 12.4763 7.69559 12.4763 11.3445V14.55H8.78198V18.7559H12.4763V29.1H17.0232V18.7559H20.4106Z" fill="white"/>
</svg>
