<svg width="151" height="23" viewBox="0 0 151 23" fill="none" xmlns="http://www.w3.org/2000/svg">
<path d="M11.6 22.33C9.22 22.33 7.2 21.88 5.54 20.98C3.9 20.08 2.65 18.82 1.79 17.2C0.93 15.58 0.5 13.68 0.5 11.5C0.5 9.26 0.94 7.32 1.82 5.68C2.72 4.04 4.01 2.77 5.69 1.87C7.37 0.97 9.39 0.519999 11.75 0.519999C13.23 0.519999 14.63 0.729999 15.95 1.15C17.29 1.57 18.38 2.13 19.22 2.83L17.72 6.46C16.8 5.78 15.86 5.3 14.9 5.02C13.94 4.72 12.9 4.57 11.78 4.57C9.64 4.57 8.03 5.17 6.95 6.37C5.89 7.55 5.36 9.26 5.36 11.5C5.36 13.76 5.9 15.47 6.98 16.63C8.08 17.79 9.7 18.37 11.84 18.37C12.98 18.37 14.18 18.19 15.44 17.83V13.69H10.88V10.33H19.28V20.71C18.24 21.23 17.04 21.63 15.68 21.91C14.32 22.19 12.96 22.33 11.6 22.33ZM36.3256 22.33C34.2456 22.33 32.4156 21.88 30.8356 20.98C29.2756 20.06 28.0556 18.79 27.1756 17.17C26.3156 15.53 25.8856 13.61 25.8856 11.41C25.8856 9.21 26.3156 7.3 27.1756 5.68C28.0556 4.04 29.2756 2.77 30.8356 1.87C32.3956 0.97 34.2256 0.519999 36.3256 0.519999C38.4256 0.519999 40.2556 0.97 41.8156 1.87C43.3956 2.77 44.6156 4.04 45.4756 5.68C46.3556 7.3 46.7956 9.2 46.7956 11.38C46.7956 13.58 46.3556 15.5 45.4756 17.14C44.6156 18.78 43.3956 20.06 41.8156 20.98C40.2556 21.88 38.4256 22.33 36.3256 22.33ZM36.3256 18.37C38.0856 18.37 39.4556 17.76 40.4356 16.54C41.4356 15.3 41.9356 13.59 41.9356 11.41C41.9356 9.21 41.4456 7.51 40.4656 6.31C39.4856 5.09 38.1056 4.48 36.3256 4.48C34.5856 4.48 33.2156 5.09 32.2156 6.31C31.2356 7.51 30.7456 9.21 30.7456 11.41C30.7456 13.59 31.2356 15.3 32.2156 16.54C33.2156 17.76 34.5856 18.37 36.3256 18.37ZM58.8659 22L51.3359 0.849999H56.1059L60.9659 15.31L66.0959 0.849999H69.4559L74.4359 15.55L79.4759 0.849999H83.9759L76.3859 22H72.6059L67.6559 7.96L62.6459 22H58.8659ZM85.3452 22L95.0652 0.849999H98.8152L108.535 22H103.855L101.875 17.41H92.0052L90.0552 22H85.3452ZM96.8952 5.8L93.5652 13.78H100.345L96.9552 5.8H96.8952ZM118.449 22L108.939 0.849999H113.919L120.459 16.03L126.999 0.849999H131.769L122.259 22H118.449ZM136.496 22V0.849999H150.986V4.48H140.936V9.43H150.326V13.09H140.936V18.37H150.986V22H136.496Z" fill="#4C4DDC"/>
<path d="M5.54 20.98L5.0589 21.8567L5.06338 21.8591L5.54 20.98ZM1.79 17.2L2.67326 16.7311L1.79 17.2ZM1.82 5.68L0.943294 5.19888L0.93884 5.20718L1.82 5.68ZM5.69 1.87L6.16222 2.75148L5.69 1.87ZM15.95 1.15L15.6468 2.10293L15.6509 2.10422L15.95 1.15ZM19.22 2.83L20.1442 3.2119L20.425 2.53243L19.8602 2.06178L19.22 2.83ZM17.72 6.46L17.1256 7.26418L18.1552 8.0252L18.6442 6.8419L17.72 6.46ZM14.9 5.02L14.6017 5.97448L14.6108 5.97733L14.62 5.98L14.9 5.02ZM6.95 6.37L6.20671 5.70103L6.20608 5.70173L6.95 6.37ZM6.98 16.63L6.24808 17.3114L6.25438 17.3181L6.98 16.63ZM15.44 17.83L15.7147 18.7915L16.44 18.5843V17.83H15.44ZM15.44 13.69H16.44V12.69H15.44V13.69ZM10.88 13.69H9.88V14.69H10.88V13.69ZM10.88 10.33V9.33H9.88V10.33H10.88ZM19.28 10.33H20.28V9.33H19.28V10.33ZM19.28 20.71L19.7272 21.6044L20.28 21.328V20.71H19.28ZM15.68 21.91L15.8817 22.8895L15.68 21.91ZM11.6 21.33C9.34397 21.33 7.497 20.9035 6.01662 20.1009L5.06338 21.8591C6.903 22.8565 9.09603 23.33 11.6 23.33V21.33ZM6.0211 20.1033C4.54842 19.2952 3.43991 18.1753 2.67326 16.7311L0.906743 17.6689C1.86009 19.4647 3.25158 20.8648 5.0589 21.8567L6.0211 20.1033ZM2.67326 16.7311C1.90314 15.2804 1.5 13.5473 1.5 11.5H-0.5C-0.5 13.8127 -0.0431387 15.8796 0.906743 17.6689L2.67326 16.7311ZM1.5 11.5C1.5 9.39161 1.91356 7.62061 2.70116 6.15282L0.93884 5.20718C-0.0335639 7.01939 -0.5 9.12839 -0.5 11.5H1.5ZM2.69667 6.1611C3.50164 4.69427 4.64957 3.56183 6.16222 2.75148L5.21778 0.98852C3.37044 1.97817 1.93837 3.38573 0.943333 5.1989L2.69667 6.1611ZM6.16222 2.75148C7.66634 1.9457 9.5161 1.52 11.75 1.52V-0.48C9.2639 -0.48 7.07366 -0.0057025 5.21778 0.98852L6.16222 2.75148ZM11.75 1.52C13.1342 1.52 14.4313 1.71619 15.6468 2.10292L16.2532 0.197073C14.8287 -0.256189 13.3258 -0.48 11.75 -0.48V1.52ZM15.6509 2.10422C16.9001 2.49576 17.8644 3.00203 18.5798 3.59822L19.8602 2.06178C18.8956 1.25797 17.6799 0.644239 16.2491 0.195772L15.6509 2.10422ZM18.2958 2.4481L16.7958 6.0781L18.6442 6.8419L20.1442 3.2119L18.2958 2.4481ZM18.3144 5.65582C17.3131 4.91572 16.2682 4.37739 15.18 4.06L14.62 5.98C15.4518 6.22261 16.2869 6.64428 17.1256 7.26418L18.3144 5.65582ZM15.1983 4.06552C14.1315 3.73214 12.9898 3.57 11.78 3.57V5.57C12.8102 5.57 13.7485 5.70786 14.6017 5.97448L15.1983 4.06552ZM11.78 3.57C9.45368 3.57 7.53286 4.22753 6.20671 5.70103L7.69329 7.03896C8.52714 6.11246 9.82632 5.57 11.78 5.57V3.57ZM6.20608 5.70173C4.92418 7.12875 4.36 9.11454 4.36 11.5H6.36C6.36 9.40546 6.85582 7.97125 7.69392 7.03827L6.20608 5.70173ZM4.36 11.5C4.36 13.9055 4.93441 15.9004 6.24811 17.3114L7.71189 15.9486C6.86559 15.0396 6.36 13.6145 6.36 11.5H4.36ZM6.25438 17.3181C7.60076 18.7379 9.52226 19.37 11.84 19.37V17.37C9.87774 17.37 8.55924 16.8421 7.70562 15.9419L6.25438 17.3181ZM11.84 19.37C13.0856 19.37 14.3784 19.1733 15.7147 18.7915L15.1653 16.8685C13.9816 17.2067 12.8744 17.37 11.84 17.37V19.37ZM16.44 17.83V13.69H14.44V17.83H16.44ZM15.44 12.69H10.88V14.69H15.44V12.69ZM11.88 13.69V10.33H9.88V13.69H11.88ZM10.88 11.33H19.28V9.33H10.88V11.33ZM18.28 10.33V20.71H20.28V10.33H18.28ZM18.8328 19.8156C17.8839 20.29 16.7691 20.6648 15.4783 20.9305L15.8817 22.8895C17.3109 22.5952 18.5961 22.17 19.7272 21.6044L18.8328 19.8156ZM15.4783 20.9305C14.1833 21.1972 12.8909 21.33 11.6 21.33V23.33C13.0292 23.33 14.4567 23.1828 15.8817 22.8895L15.4783 20.9305ZM30.8356 20.98L30.3276 21.8414L30.3341 21.8452L30.3407 21.8489L30.8356 20.98ZM27.1756 17.17L26.29 17.6344L26.2934 17.6409L26.2969 17.6473L27.1756 17.17ZM27.1756 5.68L26.2945 5.20718L26.2924 5.21111L27.1756 5.68ZM30.8356 1.87L31.3353 2.73619V2.73619L30.8356 1.87ZM41.8156 1.87L41.3159 2.7362L41.3207 2.73892L41.8156 1.87ZM45.4756 5.68L44.59 6.14441L44.5934 6.1509L44.5969 6.15733L45.4756 5.68ZM45.4756 17.14L44.5944 16.6672L44.59 16.6756L45.4756 17.14ZM41.8156 20.98L42.3153 21.8462L42.3188 21.8442L41.8156 20.98ZM40.4356 16.54L39.6572 15.9122L39.656 15.9137L40.4356 16.54ZM40.4656 6.31L39.686 6.93627L39.6911 6.94253L40.4656 6.31ZM32.2156 6.31L31.4422 5.67607L31.4411 5.67747L32.2156 6.31ZM32.2156 16.54L31.4311 17.1601L31.4366 17.167L31.4422 17.1739L32.2156 16.54ZM36.3256 21.33C34.3939 21.33 32.7392 20.9134 31.3306 20.1111L30.3407 21.8489C32.0921 22.8466 34.0974 23.33 36.3256 23.33V21.33ZM31.3436 20.1186C29.9426 19.2924 28.8495 18.1564 28.0543 16.6927L26.2969 17.6473C27.2618 19.4236 28.6086 20.8276 30.3276 21.8414L31.3436 20.1186ZM28.0612 16.7056C27.2893 15.2335 26.8856 13.4785 26.8856 11.41H24.8856C24.8856 13.7415 25.342 15.8265 26.29 17.6344L28.0612 16.7056ZM26.8856 11.41C26.8856 9.34106 27.2894 7.59833 28.0589 6.14889L26.2924 5.21111C25.3418 7.00167 24.8856 9.07894 24.8856 11.41H26.8856ZM28.0568 6.15282C28.8518 4.67113 29.9422 3.53992 31.3353 2.73619L30.3359 1.00381C28.609 2.00008 27.2594 3.40887 26.2945 5.20718L28.0568 6.15282ZM31.3353 2.73619C32.7198 1.93746 34.3716 1.52 36.3256 1.52V-0.48C34.0796 -0.48 32.0714 0.00253677 30.3359 1.00381L31.3353 2.73619ZM36.3256 1.52C38.2796 1.52 39.9314 1.93746 41.3159 2.73619L42.3153 1.00381C40.5798 0.00253677 38.5716 -0.48 36.3256 -0.48V1.52ZM41.3207 2.73892C42.7312 3.5424 43.8171 4.67054 44.59 6.14441L46.3612 5.21559C45.4141 3.40946 44.06 1.9976 42.3106 1.00108L41.3207 2.73892ZM44.5969 6.15733C45.3839 7.60622 45.7956 9.33629 45.7956 11.38H47.7956C47.7956 9.06371 47.3273 6.99378 46.3543 5.20267L44.5969 6.15733ZM45.7956 11.38C45.7956 13.445 45.3834 15.1969 44.5945 16.6672L46.3568 17.6128C47.3279 15.8031 47.7956 13.715 47.7956 11.38H45.7956ZM44.59 16.6756C43.8162 18.1513 42.7277 19.2917 41.3124 20.1158L42.3188 21.8442C44.0635 20.8283 45.4151 19.4087 46.3612 17.6044L44.59 16.6756ZM41.3159 20.1138C39.9314 20.9125 38.2796 21.33 36.3256 21.33V23.33C38.5716 23.33 40.5798 22.8475 42.3153 21.8462L41.3159 20.1138ZM36.3256 19.37C38.3459 19.37 40.0202 18.654 41.2152 17.1663L39.656 15.9137C38.8911 16.866 37.8253 17.37 36.3256 17.37V19.37ZM41.214 17.1678C42.4023 15.6943 42.9356 13.7349 42.9356 11.41H40.9356C40.9356 13.4451 40.4689 14.9057 39.6572 15.9122L41.214 17.1678ZM42.9356 11.41C42.9356 9.07444 42.4165 7.11784 41.2402 5.67747L39.6911 6.94253C40.4748 7.90216 40.9356 9.34556 40.9356 11.41H42.9356ZM41.2452 5.68375C40.0478 4.19307 38.3617 3.48 36.3256 3.48V5.48C37.8496 5.48 38.9234 5.98693 39.686 6.93625L41.2452 5.68375ZM36.3256 3.48C34.321 3.48 32.6533 4.19854 31.4422 5.67607L32.989 6.94393C33.7779 5.98145 34.8502 5.48 36.3256 5.48V3.48ZM31.4411 5.67747C30.2648 7.11784 29.7456 9.07444 29.7456 11.41H31.7456C31.7456 9.34556 32.2065 7.90216 32.9902 6.94253L31.4411 5.67747ZM29.7456 11.41C29.7456 13.7308 30.267 15.6871 31.4311 17.1601L33.0002 15.9199C32.2043 14.9129 31.7456 13.4492 31.7456 11.41H29.7456ZM31.4422 17.1739C32.6533 18.6515 34.321 19.37 36.3256 19.37V17.37C34.8502 17.37 33.7779 16.8685 32.989 15.9061L31.4422 17.1739ZM58.8659 22L57.9239 22.3354L58.1605 23H58.8659V22ZM51.3359 0.849998V-0.150002H49.9184L50.3939 1.1854L51.3359 0.849998ZM56.1059 0.849998L57.0538 0.531412L56.8248 -0.150002H56.1059V0.849998ZM60.9659 15.31L60.018 15.6286L60.9404 18.3729L61.9084 15.6444L60.9659 15.31ZM66.0959 0.849998V-0.150002H65.3896L65.1535 0.515645L66.0959 0.849998ZM69.4559 0.849998L70.4031 0.529136L70.173 -0.150002H69.4559V0.849998ZM74.4359 15.55L73.4888 15.8709L74.4303 18.6499L75.3819 15.8743L74.4359 15.55ZM79.4759 0.849998V-0.150002H78.7617L78.53 0.525674L79.4759 0.849998ZM83.9759 0.849998L84.9172 1.18777L85.3972 -0.150002H83.9759V0.849998ZM76.3859 22V23H77.0895L77.3272 22.3378L76.3859 22ZM72.6059 22L71.6628 22.3325L71.8982 23H72.6059V22ZM67.6559 7.96L68.599 7.6275L67.6616 4.96862L66.7141 7.62392L67.6559 7.96ZM62.6459 22V23H63.3509L63.5878 22.3361L62.6459 22ZM59.808 21.6646L52.278 0.514594L50.3939 1.1854L57.9239 22.3354L59.808 21.6646ZM51.3359 1.85H56.1059V-0.150002H51.3359V1.85ZM55.158 1.16859L60.018 15.6286L61.9138 14.9914L57.0538 0.531412L55.158 1.16859ZM61.9084 15.6444L67.0384 1.18435L65.1535 0.515645L60.0235 14.9756L61.9084 15.6444ZM66.0959 1.85H69.4559V-0.150002H66.0959V1.85ZM68.5088 1.17086L73.4888 15.8709L75.3831 15.2291L70.4031 0.529136L68.5088 1.17086ZM75.3819 15.8743L80.4219 1.17432L78.53 0.525674L73.49 15.2257L75.3819 15.8743ZM79.4759 1.85H83.9759V-0.150002H79.4759V1.85ZM83.0347 0.512225L75.4447 21.6622L77.3272 22.3378L84.9172 1.18777L83.0347 0.512225ZM76.3859 21H72.6059V23H76.3859V21ZM73.549 21.6675L68.599 7.6275L66.7128 8.2925L71.6628 22.3325L73.549 21.6675ZM66.7141 7.62392L61.7041 21.6639L63.5878 22.3361L68.5978 8.29608L66.7141 7.62392ZM62.6459 21H58.8659V23H62.6459V21ZM85.3452 22L84.4365 21.5824L83.785 23H85.3452V22ZM95.0652 0.849998V-0.150002H94.4242L94.1565 0.432412L95.0652 0.849998ZM98.8152 0.849998L99.7238 0.432412L99.4561 -0.150002H98.8152V0.849998ZM108.535 22V23H110.095L109.444 21.5824L108.535 22ZM103.855 22L102.937 22.3961L103.197 23H103.855V22ZM101.875 17.41L102.793 17.0139L102.533 16.41H101.875V17.41ZM92.0052 17.41V16.41H91.3435L91.0848 17.019L92.0052 17.41ZM90.0552 22V23H90.7168L90.9755 22.391L90.0552 22ZM96.8952 5.8V4.8H96.2289L95.9723 5.41489L96.8952 5.8ZM93.5652 13.78L92.6423 13.3949L92.0643 14.78H93.5652V13.78ZM100.345 13.78V14.78H101.856L101.266 13.389L100.345 13.78ZM96.9552 5.8L97.8755 5.40901L97.6168 4.8H96.9552V5.8ZM86.2538 22.4176L95.9738 1.26759L94.1565 0.432412L84.4365 21.5824L86.2538 22.4176ZM95.0652 1.85H98.8152V-0.150002H95.0652V1.85ZM97.9065 1.26759L107.627 22.4176L109.444 21.5824L99.7238 0.432412L97.9065 1.26759ZM108.535 21H103.855V23H108.535V21ZM104.773 21.6039L102.793 17.0139L100.957 17.8061L102.937 22.3961L104.773 21.6039ZM101.875 16.41H92.0052V18.41H101.875V16.41ZM91.0848 17.019L89.1348 21.609L90.9755 22.391L92.9255 17.801L91.0848 17.019ZM90.0552 21H85.3452V23H90.0552V21ZM95.9723 5.41489L92.6423 13.3949L94.488 14.1651L97.818 6.18511L95.9723 5.41489ZM93.5652 14.78H100.345V12.78H93.5652V14.78ZM101.266 13.389L97.8755 5.40901L96.0348 6.19099L99.4248 14.171L101.266 13.389ZM96.9552 4.8H96.8952V6.8H96.9552V4.8ZM118.449 22L117.537 22.4101L117.802 23H118.449V22ZM108.939 0.849998V-0.150002H107.393L108.027 1.26009L108.939 0.849998ZM113.919 0.849998L114.837 0.454328L114.577 -0.150002H113.919V0.849998ZM120.459 16.03L119.54 16.4257L120.459 18.5574L121.377 16.4257L120.459 16.03ZM126.999 0.849998V-0.150002H126.341L126.08 0.454328L126.999 0.849998ZM131.769 0.849998L132.681 1.26009L133.315 -0.150002H131.769V0.849998ZM122.259 22V23H122.906L123.171 22.4101L122.259 22ZM119.361 21.5899L109.851 0.439903L108.027 1.26009L117.537 22.4101L119.361 21.5899ZM108.939 1.85H113.919V-0.150002H108.939V1.85ZM113 1.24567L119.54 16.4257L121.377 15.6343L114.837 0.454328L113 1.24567ZM121.377 16.4257L127.917 1.24567L126.08 0.454328L119.54 15.6343L121.377 16.4257ZM126.999 1.85H131.769V-0.150002H126.999V1.85ZM130.857 0.439903L121.347 21.5899L123.171 22.4101L132.681 1.26009L130.857 0.439903ZM122.259 21H118.449V23H122.259V21ZM136.496 22H135.496V23H136.496V22ZM136.496 0.849998V-0.150002H135.496V0.849998H136.496ZM150.986 0.849998H151.986V-0.150002H150.986V0.849998ZM150.986 4.48V5.48H151.986V4.48H150.986ZM140.936 4.48V3.48H139.936V4.48H140.936ZM140.936 9.43H139.936V10.43H140.936V9.43ZM150.326 9.43H151.326V8.43H150.326V9.43ZM150.326 13.09V14.09H151.326V13.09H150.326ZM140.936 13.09V12.09H139.936V13.09H140.936ZM140.936 18.37H139.936V19.37H140.936V18.37ZM150.986 18.37H151.986V17.37H150.986V18.37ZM150.986 22V23H151.986V22H150.986ZM137.496 22V0.849998H135.496V22H137.496ZM136.496 1.85H150.986V-0.150002H136.496V1.85ZM149.986 0.849998V4.48H151.986V0.849998H149.986ZM150.986 3.48H140.936V5.48H150.986V3.48ZM139.936 4.48V9.43H141.936V4.48H139.936ZM140.936 10.43H150.326V8.43H140.936V10.43ZM149.326 9.43V13.09H151.326V9.43H149.326ZM150.326 12.09H140.936V14.09H150.326V12.09ZM139.936 13.09V18.37H141.936V13.09H139.936ZM140.936 19.37H150.986V17.37H140.936V19.37ZM149.986 18.37V22H151.986V18.37H149.986ZM150.986 21H136.496V23H150.986V21Z" fill="#4C4DDC"/>
</svg>
