<svg width="30" height="30" viewBox="0 0 30 30" fill="none" xmlns="http://www.w3.org/2000/svg">
<path d="M27.2531 0.000110198H2.44675C1.88391 -0.00561788 1.34179 0.212168 0.939335 0.605679C0.53688 0.99919 0.306969 1.53628 0.300049 2.09911V27.0057C0.30822 27.5677 0.538682 28.1035 0.941 28.496C1.34332 28.8885 1.88473 29.1056 2.44675 29.0999H27.2531C27.816 29.1044 28.3578 28.8858 28.76 28.4921C29.1623 28.0983 29.3923 27.5613 29.3998 26.9985V2.09195C29.3898 1.53078 29.1587 0.996246 28.7567 0.604541C28.3547 0.212836 27.8144 -0.00437919 27.2531 0.000110198Z" fill="#0076B2"/>
<path d="M4.60788 10.9076H8.92753V24.8064H4.60788V10.9076ZM6.76889 3.99048C7.26434 3.99048 7.74865 4.13742 8.16056 4.41273C8.57247 4.68803 8.89348 5.07932 9.08297 5.53709C9.27246 5.99487 9.32191 6.49856 9.22508 6.98445C9.12825 7.47034 8.88949 7.91659 8.53899 8.26675C8.18849 8.61692 7.74201 8.85526 7.25603 8.95162C6.77005 9.04799 6.26641 8.99805 5.80881 8.80813C5.35122 8.6182 4.96024 8.29683 4.68533 7.88465C4.41042 7.47248 4.26393 6.98802 4.26441 6.49258C4.26504 5.82876 4.52918 5.19235 4.9988 4.72318C5.46841 4.25402 6.10508 3.99048 6.76889 3.99048Z" fill="white"/>
<path d="M11.6365 10.9076H15.7772V12.8158H15.8345C16.4117 11.7234 17.819 10.5713 19.9204 10.5713C24.2949 10.5618 25.1059 13.4407 25.1059 17.1736V24.8064H20.7862V18.0442C20.7862 16.4342 20.7576 14.3614 18.5417 14.3614C16.3258 14.3614 15.949 16.117 15.949 17.9393V24.8064H11.6365V10.9076Z" fill="white"/>
</svg>
