<svg width="30" height="30" viewBox="0 0 30 30" fill="none" xmlns="http://www.w3.org/2000/svg">
<path d="M24.8351 0H4.4651C2.05437 0 0.100098 1.95428 0.100098 4.365V24.735C0.100098 27.1457 2.05437 29.1 4.4651 29.1H24.8351C27.2458 29.1 29.2001 27.1457 29.2001 24.735V4.365C29.2001 1.95428 27.2458 0 24.8351 0Z" fill="#1DA1F2"/>
<path d="M24.9373 8.63909C24.2635 9.08604 23.4724 9.32337 22.6639 9.32112C23.5283 8.81189 24.1756 8.00283 24.4826 7.04769C23.7661 7.65345 22.8631 7.99457 21.925 8.0139C21.3065 7.38042 20.4992 6.96462 19.6243 6.8289C18.7495 6.69317 17.8542 6.84484 17.0728 7.26114C16.2914 7.67744 15.6662 8.33592 15.2908 9.13776C14.9154 9.93959 14.8103 10.8415 14.991 11.7082C13.3992 11.6242 11.8429 11.2063 10.4231 10.4817C9.00334 9.75715 7.75181 8.74206 6.7498 7.50237C6.25949 8.38961 6.11592 9.42725 6.34693 10.4143C6.57794 11.4013 7.16707 12.2675 8.0002 12.845C7.37143 12.8538 6.74907 12.7177 6.18145 12.4471C6.19673 13.3626 6.51863 14.2466 7.09565 14.9576C7.67267 15.6685 8.47147 16.1654 9.36426 16.3688C8.76996 16.524 8.14834 16.5434 7.54551 16.4256C7.80556 17.2367 8.31221 17.9464 8.99482 18.4558C9.67743 18.9652 10.502 19.2489 11.3535 19.2674C9.55508 20.3584 7.48919 20.929 5.38574 20.9157C7.14739 22.0657 9.19365 22.7044 11.2967 22.7605C13.3998 22.8165 15.4772 22.2879 17.2976 21.2333C19.1181 20.1788 20.6102 18.6397 21.6077 16.7874C22.6053 14.9351 23.0693 12.8424 22.948 10.742C23.698 10.1287 24.3665 9.42198 24.9373 8.63909Z" fill="white"/>
</svg>
