<svg width="30" height="30" viewBox="0 0 30 30" fill="none" xmlns="http://www.w3.org/2000/svg">
<path d="M24.735 0H4.365C1.95428 0 0 1.95428 0 4.365V24.735C0 27.1457 1.95428 29.1 4.365 29.1H24.735C27.1457 29.1 29.1 27.1457 29.1 24.735V4.365C29.1 1.95428 27.1457 0 24.735 0Z" fill="black"/>
<path d="M24.735 0H4.365C1.95428 0 0 1.95428 0 4.365V24.735C0 27.1457 1.95428 29.1 4.365 29.1H24.735C27.1457 29.1 29.1 27.1457 29.1 24.735V4.365C29.1 1.95428 27.1457 0 24.735 0Z" fill="url(#paint0_radial_47_147)"/>
<path d="M24.735 0H4.365C1.95428 0 0 1.95428 0 4.365V24.735C0 27.1457 1.95428 29.1 4.365 29.1H24.735C27.1457 29.1 29.1 27.1457 29.1 24.735V4.365C29.1 1.95428 27.1457 0 24.735 0Z" fill="url(#paint1_linear_47_147)"/>
<path d="M18.6991 5.79712H10.4011C7.85851 5.79712 5.79736 7.85827 5.79736 10.4008V18.6989C5.79736 21.2414 7.85851 23.3026 10.4011 23.3026H18.6991C21.2417 23.3026 23.3028 21.2414 23.3028 18.6989V10.4008C23.3028 7.85827 21.2417 5.79712 18.6991 5.79712Z" stroke="white" stroke-width="3.9905"/>
<path d="M14.5502 18.6419C16.8102 18.6419 18.6424 16.8098 18.6424 14.5497C18.6424 12.2897 16.8102 10.4575 14.5502 10.4575C12.2901 10.4575 10.458 12.2897 10.458 14.5497C10.458 16.8098 12.2901 18.6419 14.5502 18.6419Z" stroke="white" stroke-width="3.9905"/>
<path d="M19.7219 9.7189C19.9102 9.7189 20.0629 9.56622 20.0629 9.37788C20.0629 9.18954 19.9102 9.03687 19.7219 9.03687C19.5335 9.03687 19.3809 9.18954 19.3809 9.37788C19.3809 9.56622 19.5335 9.7189 19.7219 9.7189Z" stroke="white" stroke-width="3.9905"/>
<defs>
<radialGradient id="paint0_radial_47_147" cx="0" cy="0" r="1" gradientUnits="userSpaceOnUse" gradientTransform="translate(11.64 29.1) scale(29.1)">
<stop offset="0.1" stop-color="#FFDD55"/>
<stop offset="0.5" stop-color="#FF543E"/>
<stop offset="1" stop-color="#C837AB"/>
</radialGradient>
<linearGradient id="paint1_linear_47_147" x1="0" y1="0" x2="5.82" y2="29.1" gradientUnits="userSpaceOnUse">
<stop offset="0.1" stop-color="#3771C8"/>
<stop offset="0.5" stop-color="#6600FF" stop-opacity="0"/>
</linearGradient>
</defs>
</svg>
