<svg width="154" height="36" viewBox="0 0 154 36" fill="none" xmlns="http://www.w3.org/2000/svg">
<path d="M73.9999 22L83.4999 25L91.4999 17L101.5 24L112 22L107.5 7.49998L91.4999 12.5L82.4999 7.49998L72.9999 8.99998L73.9999 22Z" fill="#F1A501"/>
<path d="M12.6 28.33C10.22 28.33 8.2 27.88 6.54 26.98C4.9 26.08 3.65 24.82 2.79 23.2C1.93 21.58 1.5 19.68 1.5 17.5C1.5 15.26 1.94 13.32 2.82 11.68C3.72 10.04 5.01 8.77 6.69 7.87C8.37 6.97 10.39 6.52 12.75 6.52C14.23 6.52 15.63 6.73 16.95 7.15C18.29 7.57 19.38 8.13 20.22 8.83L18.72 12.46C17.8 11.78 16.86 11.3 15.9 11.02C14.94 10.72 13.9 10.57 12.78 10.57C10.64 10.57 9.03 11.17 7.95 12.37C6.89 13.55 6.36 15.26 6.36 17.5C6.36 19.76 6.9 21.47 7.98 22.63C9.08 23.79 10.7 24.37 12.84 24.37C13.98 24.37 15.18 24.19 16.44 23.83V19.69H11.88V16.33H20.28V26.71C19.24 27.23 18.04 27.63 16.68 27.91C15.32 28.19 13.96 28.33 12.6 28.33ZM37.3256 28.33C35.2456 28.33 33.4156 27.88 31.8356 26.98C30.2756 26.06 29.0556 24.79 28.1756 23.17C27.3156 21.53 26.8856 19.61 26.8856 17.41C26.8856 15.21 27.3156 13.3 28.1756 11.68C29.0556 10.04 30.2756 8.77 31.8356 7.87C33.3956 6.97 35.2256 6.52 37.3256 6.52C39.4256 6.52 41.2556 6.97 42.8156 7.87C44.3956 8.77 45.6156 10.04 46.4756 11.68C47.3556 13.3 47.7956 15.2 47.7956 17.38C47.7956 19.58 47.3556 21.5 46.4756 23.14C45.6156 24.78 44.3956 26.06 42.8156 26.98C41.2556 27.88 39.4256 28.33 37.3256 28.33ZM37.3256 24.37C39.0856 24.37 40.4556 23.76 41.4356 22.54C42.4356 21.3 42.9356 19.59 42.9356 17.41C42.9356 15.21 42.4456 13.51 41.4656 12.31C40.4856 11.09 39.1056 10.48 37.3256 10.48C35.5856 10.48 34.2156 11.09 33.2156 12.31C32.2356 13.51 31.7456 15.21 31.7456 17.41C31.7456 19.59 32.2356 21.3 33.2156 22.54C34.2156 23.76 35.5856 24.37 37.3256 24.37ZM59.8659 28L52.3359 6.85H57.1059L61.9659 21.31L67.0959 6.85H70.4559L75.4359 21.55L80.4759 6.85H84.9759L77.3859 28H73.6059L68.6559 13.96L63.6459 28H59.8659ZM86.3452 28L96.0652 6.85H99.8152L109.535 28H104.855L102.875 23.41H93.0052L91.0552 28H86.3452ZM97.8952 11.8L94.5652 19.78H101.345L97.9552 11.8H97.8952ZM119.449 28L109.939 6.85H114.919L121.459 22.03L127.999 6.85H132.769L123.259 28H119.449ZM137.496 28V6.85H151.986V10.48H141.936V15.43H151.326V19.09H141.936V24.37H151.986V28H137.496Z" fill="#4C4DDC"/>
<path d="M6.54 26.98L5.57779 28.7334L5.58675 28.7382L6.54 26.98ZM2.79 23.2L4.55651 22.2622L2.79 23.2ZM2.82 11.68L1.06667 10.7178L1.06213 10.7261L1.05768 10.7344L2.82 11.68ZM6.69 7.87L7.63444 9.63296L7.63444 9.63296L6.69 7.87ZM16.95 7.15L16.3436 9.05587L16.3518 9.05845L16.95 7.15ZM20.22 8.83L22.0684 9.5938L22.6299 8.23487L21.5004 7.29356L20.22 8.83ZM18.72 12.46L17.5312 14.0684L19.5905 15.5904L20.5684 13.2238L18.72 12.46ZM15.9 11.02L15.3035 12.929L15.3217 12.9347L15.34 12.94L15.9 11.02ZM7.95 12.37L6.46341 11.0321L6.46216 11.0335L7.95 12.37ZM7.98 22.63L6.51621 23.9928L6.52245 23.9995L6.52875 24.0062L7.98 22.63ZM16.44 23.83L16.9894 25.753L18.44 25.3386V23.83H16.44ZM16.44 19.69H18.44V17.69H16.44V19.69ZM11.88 19.69H9.88V21.69H11.88V19.69ZM11.88 16.33V14.33H9.88V16.33H11.88ZM20.28 16.33H22.28V14.33H20.28V16.33ZM20.28 26.71L21.1744 28.4989L22.28 27.9461V26.71H20.28ZM16.68 27.91L17.0833 29.8689L16.68 27.91ZM12.6 26.33C10.4679 26.33 8.794 25.927 7.49325 25.2218L5.58675 28.7382C7.606 29.833 9.97206 30.33 12.6 30.33V26.33ZM7.5022 25.2267C6.19684 24.5103 5.22982 23.5305 4.55651 22.2622L1.02349 24.1378C2.07018 26.1095 3.60316 27.6497 5.57781 28.7333L7.5022 25.2267ZM4.55651 22.2622C3.87628 20.9808 3.5 19.4145 3.5 17.5H-0.5C-0.5 19.9455 -0.0162776 22.1792 1.02349 24.1378L4.55651 22.2622ZM3.5 17.5C3.5 15.5232 3.88713 13.9212 4.58232 12.6256L1.05768 10.7344C-0.00712784 12.7188 -0.5 14.9968 -0.5 17.5H3.5ZM4.57333 12.6422C5.28327 11.3485 6.28913 10.3537 7.63444 9.63296L5.74556 6.10704C3.73087 7.18634 2.15673 8.73146 1.06667 10.7178L4.57333 12.6422ZM7.63444 9.63296C8.96268 8.9214 10.6422 8.52 12.75 8.52V4.52C10.1378 4.52 7.77732 5.0186 5.74556 6.10704L7.63444 9.63296ZM12.75 8.52C14.0383 8.52 15.2327 8.70238 16.3436 9.05585L17.5564 5.24415C16.0273 4.75762 14.4217 4.52 12.75 4.52V8.52ZM16.3518 9.05845C17.5102 9.42152 18.3488 9.87406 18.9396 10.3664L21.5004 7.29356C20.4112 6.38594 19.0698 5.71848 17.5482 5.24155L16.3518 9.05845ZM18.3716 8.06619L16.8716 11.6962L20.5684 13.2238L22.0684 9.5938L18.3716 8.06619ZM19.9088 10.8516C18.8261 10.0514 17.6764 9.45478 16.46 9.1L15.34 12.94C16.0436 13.1452 16.7739 13.5086 17.5312 14.0684L19.9088 10.8516ZM16.4965 9.11104C15.3229 8.74428 14.0796 8.57 12.78 8.57V12.57C13.7204 12.57 14.5571 12.6957 15.3035 12.929L16.4965 9.11104ZM12.78 8.57C10.2674 8.57 8.03571 9.28507 6.46341 11.0321L9.43659 13.7079C10.0243 13.0549 11.0126 12.57 12.78 12.57V8.57ZM6.46216 11.0335C4.95836 12.7075 4.36 14.9691 4.36 17.5H8.36C8.36 15.5509 8.82164 14.3925 9.43784 13.7065L6.46216 11.0335ZM4.36 17.5C4.36 20.0509 4.96882 22.3308 6.51621 23.9928L9.44379 21.2672C8.83118 20.6092 8.36 19.4691 8.36 17.5H4.36ZM6.52875 24.0062C8.12152 25.6858 10.3445 26.37 12.84 26.37V22.37C11.0555 22.37 10.0385 21.8942 9.43125 21.2538L6.52875 24.0062ZM12.84 26.37C14.1911 26.37 15.5769 26.1566 16.9894 25.753L15.8906 21.907C14.7831 22.2234 13.7689 22.37 12.84 22.37V26.37ZM18.44 23.83V19.69H14.44V23.83H18.44ZM16.44 17.69H11.88V21.69H16.44V17.69ZM13.88 19.69V16.33H9.88V19.69H13.88ZM11.88 18.33H20.28V14.33H11.88V18.33ZM18.28 16.33V26.71H22.28V16.33H18.28ZM19.3856 24.9211C18.5278 25.35 17.4982 25.6996 16.2767 25.9511L17.0833 29.8689C18.5818 29.5604 19.9522 29.11 21.1744 28.4989L19.3856 24.9211ZM16.2767 25.9511C15.0466 26.2043 13.8217 26.33 12.6 26.33V30.33C14.0983 30.33 15.5934 30.1757 17.0833 29.8689L16.2767 25.9511ZM31.8356 26.98L30.8197 28.7027L30.8326 28.7104L30.8457 28.7178L31.8356 26.98ZM28.1756 23.17L26.4044 24.0988L26.4112 24.1118L26.4182 24.1247L28.1756 23.17ZM28.1756 11.68L26.4133 10.7344L26.4091 10.7422L28.1756 11.68ZM31.8356 7.87L32.8351 9.60237L31.8356 7.87ZM42.8156 7.87L41.8162 9.6024L41.8257 9.60784L42.8156 7.87ZM46.4756 11.68L44.7044 12.6088L44.7112 12.6218L44.7182 12.6347L46.4756 11.68ZM46.4756 23.14L44.7133 22.1944L44.7088 22.2028L44.7044 22.2112L46.4756 23.14ZM42.8156 26.98L43.8151 28.7124L43.822 28.7084L42.8156 26.98ZM41.4356 22.54L39.8788 21.2845L39.8764 21.2875L41.4356 22.54ZM41.4656 12.31L39.9064 13.5625L39.9114 13.5688L39.9166 13.5751L41.4656 12.31ZM33.2156 12.31L31.6688 11.0421L31.6666 11.0449L33.2156 12.31ZM33.2156 22.54L31.6465 23.7801L31.6575 23.7941L31.6688 23.8079L33.2156 22.54ZM37.3256 26.33C35.5421 26.33 34.0627 25.9469 32.8255 25.2422L30.8457 28.7178C32.7685 29.8131 34.9492 30.33 37.3256 30.33V26.33ZM32.8516 25.2573C31.6096 24.5248 30.6433 23.5229 29.9331 22.2153L26.4182 24.1247C27.4679 26.0571 28.9416 27.5952 30.8197 28.7027L32.8516 25.2573ZM29.9469 22.2412C29.263 20.937 28.8856 19.3471 28.8856 17.41H24.8856C24.8856 19.8729 25.3683 22.123 26.4044 24.0988L29.9469 22.2412ZM28.8856 17.41C28.8856 15.4721 29.2632 13.8967 29.9421 12.6178L26.4091 10.7422C25.368 12.7033 24.8856 14.9479 24.8856 17.41H28.8856ZM29.9379 12.6256C30.648 11.3023 31.6088 10.3098 32.8351 9.60237L30.8362 6.13763C28.9424 7.23016 27.4632 8.77774 26.4133 10.7344L29.9379 12.6256ZM32.8351 9.60237C34.044 8.90492 35.5177 8.52 37.3256 8.52V4.52C34.9336 4.52 32.7473 5.03507 30.8362 6.13763L32.8351 9.60237ZM37.3256 8.52C39.1336 8.52 40.6073 8.90492 41.8162 9.60237L43.8151 6.13763C41.904 5.03507 39.7177 4.52 37.3256 4.52V8.52ZM41.8257 9.60784C43.0668 10.3148 44.0186 11.3011 44.7044 12.6088L48.2469 10.7512C47.2126 8.77892 45.7244 7.2252 43.8055 6.13216L41.8257 9.60784ZM44.7182 12.6347C45.4123 13.9124 45.7956 15.4726 45.7956 17.38H49.7956C49.7956 14.9274 49.299 12.6876 48.2331 10.7253L44.7182 12.6347ZM45.7956 17.38C45.7956 19.3101 45.4112 20.8938 44.7133 22.1944L48.2379 24.0856C49.3001 22.1062 49.7956 19.8499 49.7956 17.38H45.7956ZM44.7044 22.2112C44.0167 23.5226 43.0598 24.5235 41.8092 25.2516L43.822 28.7084C45.7315 27.5965 47.2145 26.0374 48.2469 24.0688L44.7044 22.2112ZM41.8162 25.2476C40.6073 25.9451 39.1336 26.33 37.3256 26.33V30.33C39.7177 30.33 41.904 29.8149 43.8151 28.7124L41.8162 25.2476ZM37.3256 26.37C39.6062 26.37 41.5847 25.548 42.9949 23.7925L39.8764 21.2875C39.3266 21.972 38.5651 22.37 37.3256 22.37V26.37ZM42.9925 23.7955C44.369 22.0886 44.9356 19.8797 44.9356 17.41H40.9356C40.9356 19.3003 40.5022 20.5114 39.8788 21.2845L42.9925 23.7955ZM44.9356 17.41C44.9356 14.9389 44.3873 12.7257 43.0147 11.0449L39.9166 13.5751C40.5039 14.2943 40.9356 15.4811 40.9356 17.41H44.9356ZM43.0249 11.0575C41.61 9.29614 39.6177 8.48 37.3256 8.48V12.48C38.5935 12.48 39.3612 12.8839 39.9064 13.5625L43.0249 11.0575ZM37.3256 8.48C35.0565 8.48 33.091 9.30709 31.6688 11.0421L34.7624 13.5779C35.3402 12.8729 36.1148 12.48 37.3256 12.48V8.48ZM31.6666 11.0449C30.2939 12.7257 29.7456 14.9389 29.7456 17.41H33.7456C33.7456 15.4811 34.1773 14.2943 34.7647 13.5751L31.6666 11.0449ZM29.7456 17.41C29.7456 19.8715 30.2983 22.0743 31.6465 23.7801L34.7847 21.2999C34.1729 20.5257 33.7456 19.3085 33.7456 17.41H29.7456ZM31.6688 23.8079C33.091 25.5429 35.0565 26.37 37.3256 26.37V22.37C36.1148 22.37 35.3402 21.9771 34.7624 21.2721L31.6688 23.8079ZM59.8659 28L57.9818 28.6708L58.455 30H59.8659V28ZM52.3359 6.85V4.85H49.5009L50.4518 7.52081L52.3359 6.85ZM57.1059 6.85L59.0017 6.21283L58.5437 4.85H57.1059V6.85ZM61.9659 21.31L60.0701 21.9472L61.9148 27.4357L63.8508 21.9787L61.9659 21.31ZM67.0959 6.85V4.85H65.6833L65.211 6.18129L67.0959 6.85ZM70.4559 6.85L72.3502 6.20827L71.89 4.85H70.4559V6.85ZM75.4359 21.55L73.5417 22.1917L75.4246 27.7497L77.3278 22.1986L75.4359 21.55ZM80.4759 6.85V4.85H79.0474L78.584 6.20135L80.4759 6.85ZM84.9759 6.85L86.8584 7.52555L87.8186 4.85H84.9759V6.85ZM77.3859 28V30H78.7931L79.2684 28.6755L77.3859 28ZM73.6059 28L71.7197 28.665L72.1904 30H73.6059V28ZM68.6559 13.96L70.5421 13.295L68.6673 7.97724L66.7723 13.2878L68.6559 13.96ZM63.6459 28V30H65.0558L65.5296 28.6722L63.6459 28ZM61.7501 27.3292L54.2201 6.17919L50.4518 7.52081L57.9818 28.6708L61.7501 27.3292ZM52.3359 8.85H57.1059V4.85H52.3359V8.85ZM55.2101 7.48717L60.0701 21.9472L63.8617 20.6728L59.0017 6.21283L55.2101 7.48717ZM63.8508 21.9787L68.9808 7.51871L65.211 6.18129L60.081 20.6413L63.8508 21.9787ZM67.0959 8.85H70.4559V4.85H67.0959V8.85ZM68.5617 7.49172L73.5417 22.1917L77.3302 20.9083L72.3502 6.20827L68.5617 7.49172ZM77.3278 22.1986L82.3678 7.49865L78.584 6.20135L73.544 20.9014L77.3278 22.1986ZM80.4759 8.85H84.9759V4.85H80.4759V8.85ZM83.0935 6.17445L75.5035 27.3245L79.2684 28.6755L86.8584 7.52555L83.0935 6.17445ZM77.3859 26H73.6059V30H77.3859V26ZM75.4921 27.335L70.5421 13.295L66.7697 14.625L71.7197 28.665L75.4921 27.335ZM66.7723 13.2878L61.7623 27.3278L65.5296 28.6722L70.5396 14.6322L66.7723 13.2878ZM63.6459 26H59.8659V30H63.6459V26ZM86.3452 28L84.5279 27.1648L83.2249 30H86.3452V28ZM96.0652 6.85V4.85H94.7832L94.2479 6.01483L96.0652 6.85ZM99.8152 6.85L101.632 6.01483L101.097 4.85H99.8152V6.85ZM109.535 28V30H112.655L111.352 27.1648L109.535 28ZM104.855 28L103.019 28.7922L103.54 30H104.855V28ZM102.875 23.41L104.712 22.6178L104.191 21.41H102.875V23.41ZM93.0052 23.41V21.41H91.6818L91.1644 22.628L93.0052 23.41ZM91.0552 28V30H92.3785L92.8959 28.782L91.0552 28ZM97.8952 11.8V9.8H96.5626L96.0494 11.0298L97.8952 11.8ZM94.5652 19.78L92.7194 19.0098L91.5634 21.78H94.5652V19.78ZM101.345 19.78V21.78H104.368L103.186 18.998L101.345 19.78ZM97.9552 11.8L99.7959 11.018L99.2785 9.8H97.9552V11.8ZM88.1624 28.8352L97.8824 7.68517L94.2479 6.01483L84.5279 27.1648L88.1624 28.8352ZM96.0652 8.85H99.8152V4.85H96.0652V8.85ZM97.9979 7.68517L107.718 28.8352L111.352 27.1648L101.632 6.01483L97.9979 7.68517ZM109.535 26H104.855V30H109.535V26ZM106.692 27.2078L104.712 22.6178L101.039 24.2022L103.019 28.7922L106.692 27.2078ZM102.875 21.41H93.0052V25.41H102.875V21.41ZM91.1644 22.628L89.2144 27.218L92.8959 28.782L94.8459 24.192L91.1644 22.628ZM91.0552 26H86.3452V30H91.0552V26ZM96.0494 11.0298L92.7194 19.0098L96.4109 20.5502L99.7409 12.5702L96.0494 11.0298ZM94.5652 21.78H101.345V17.78H94.5652V21.78ZM103.186 18.998L99.7959 11.018L96.1144 12.582L99.5044 20.562L103.186 18.998ZM97.9552 9.8H97.8952V13.8H97.9552V9.8ZM119.449 28L117.625 28.8202L118.155 30H119.449V28ZM109.939 6.85V4.85H106.847L108.115 7.67019L109.939 6.85ZM114.919 6.85L116.756 6.05866L116.235 4.85H114.919V6.85ZM121.459 22.03L119.622 22.8213L121.459 27.0847L123.296 22.8213L121.459 22.03ZM127.999 6.85V4.85H126.683L126.162 6.05866L127.999 6.85ZM132.769 6.85L134.593 7.67019L135.861 4.85H132.769V6.85ZM123.259 28V30H124.552L125.083 28.8202L123.259 28ZM121.273 27.1798L111.763 6.02981L108.115 7.67019L117.625 28.8202L121.273 27.1798ZM109.939 8.85H114.919V4.85H109.939V8.85ZM113.082 7.64134L119.622 22.8213L123.296 21.2387L116.756 6.05866L113.082 7.64134ZM123.296 22.8213L129.836 7.64134L126.162 6.05866L119.622 21.2387L123.296 22.8213ZM127.999 8.85H132.769V4.85H127.999V8.85ZM130.945 6.02981L121.435 27.1798L125.083 28.8202L134.593 7.67019L130.945 6.02981ZM123.259 26H119.449V30H123.259V26ZM137.496 28H135.496V30H137.496V28ZM137.496 6.85V4.85H135.496V6.85H137.496ZM151.986 6.85H153.986V4.85H151.986V6.85ZM151.986 10.48V12.48H153.986V10.48H151.986ZM141.936 10.48V8.48H139.936V10.48H141.936ZM141.936 15.43H139.936V17.43H141.936V15.43ZM151.326 15.43H153.326V13.43H151.326V15.43ZM151.326 19.09V21.09H153.326V19.09H151.326ZM141.936 19.09V17.09H139.936V19.09H141.936ZM141.936 24.37H139.936V26.37H141.936V24.37ZM151.986 24.37H153.986V22.37H151.986V24.37ZM151.986 28V30H153.986V28H151.986ZM139.496 28V6.85H135.496V28H139.496ZM137.496 8.85H151.986V4.85H137.496V8.85ZM149.986 6.85V10.48H153.986V6.85H149.986ZM151.986 8.48H141.936V12.48H151.986V8.48ZM139.936 10.48V15.43H143.936V10.48H139.936ZM141.936 17.43H151.326V13.43H141.936V17.43ZM149.326 15.43V19.09H153.326V15.43H149.326ZM151.326 17.09H141.936V21.09H151.326V17.09ZM139.936 19.09V24.37H143.936V19.09H139.936ZM141.936 26.37H151.986V22.37H141.936V26.37ZM149.986 24.37V28H153.986V24.37H149.986ZM151.986 26H137.496V30H151.986V26Z" fill="#DFE0F3"/>
</svg>
